<?xml version="1.0" encoding="utf-8"?>
<svg version="1.1" xmlns="http://www.w3.org/2000/svg" xmlns:xlink="http://www.w3.org/1999/xlink" x="0px" y="0px"
	 viewBox="0 0 512 120" style="enable-background:new 0 0 512 120;" xml:space="preserve">
<style type="text/css">
	.st0{fill:#FFFFFF;}
</style>
<g>
	<path class="st0" d="M151,120c53.7,0.9,86.1-22.2,105-46.5c37.4,49.4,91.4,43.7,119.1,46.5c75-0.6,136.9-38.1,136.9-77.1V15
		c0-8.4-6.6-15-15-15s-15,6.6-15,15c0,24.9-20.1,45-45,45h-9c-10.2,0-20.1-3.6-28.2-9.9l-43.3-33.9C343.6,5.7,327.1,0,310.3,0
		c-26.7,0-44.1,13.5-54.3,23.7C245.8,13.2,229,0,201.7,0c-16.8,0-33.3,5.7-46.2,16.2l-42.3,33.9c-8.1,6.3-18,9.9-28.2,9.9h-9
		c-24.9,0-46-20.1-46-45c0-8.4-6.6-15-15-15S0,6.6,0,15v22.8C0,84.9,59.8,118.8,151,120L151,120z"/>
</g>
</svg>
